<?xml version="1.0" encoding="UTF-8"?>
<svg version="1.1" xmlns="http://www.w3.org/2000/svg" width="512" height="512">
<path d="M0 0 C2.90890717 0.00536159 5.81765999 0.00002292 8.7265625 -0.00634766 C23.50812375 -0.0143032 37.66618442 0.48470988 52.1640625 3.69287109 C53.36716064 3.95753174 54.57025879 4.22219238 55.80981445 4.49487305 C103.3409208 15.27182326 145.84940333 37.25940245 180.9140625 71.13037109 C181.53490723 71.72930176 182.15575195 72.32823242 182.79541016 72.9453125 C190.69545051 80.60805503 198.24849146 88.34665629 204.9140625 97.13037109 C205.3467041 97.69723633 205.7793457 98.26410156 206.22509766 98.84814453 C212.65054472 107.303035 218.57430724 115.94096639 223.9140625 125.13037109 C224.29385254 125.77248535 224.67364258 126.41459961 225.06494141 127.07617188 C239.32533976 151.28381548 248.92954957 177.16820943 254.7890625 204.63037109 C254.98024658 205.52361084 255.17143066 206.41685059 255.3684082 207.3371582 C258.57214043 223.41689819 259.29073564 239.46216009 259.2265625 255.81787109 C259.22382828 257.26895767 259.22382828 257.26895767 259.22103882 258.74935913 C259.17561076 273.08228086 258.66672322 287.02811026 255.9140625 301.13037109 C255.75309082 302.02739746 255.59211914 302.92442383 255.42626953 303.84863281 C246.04691683 355.68284617 220.16334049 401.99397022 183.2265625 439.13037109 C182.37199463 439.99049805 181.51742676 440.850625 180.63696289 441.73681641 C165.23421571 456.96683078 147.61086879 469.31196394 128.9140625 480.13037109 C128.23682129 480.52466309 127.55958008 480.91895508 126.86181641 481.32519531 C100.94282441 496.23322481 71.45054612 505.79188928 41.9140625 510.13037109 C40.70943359 510.30769775 39.50480469 510.48502441 38.26367188 510.66772461 C26.60638896 512.2666961 15.04220152 512.48877639 3.2890625 512.44287109 C1.83422958 512.44013687 1.83422958 512.44013687 0.3500061 512.43734741 C-14.00149805 512.39195419 -27.96536668 511.88660579 -42.0859375 509.13037109 C-42.98296387 508.96939941 -43.87999023 508.80842773 -44.80419922 508.64257812 C-88.78797575 500.68375466 -130.61454651 480.76370925 -164.0859375 451.13037109 C-164.88773437 450.43943359 -165.68953125 449.74849609 -166.515625 449.03662109 C-178.22794395 438.78341258 -189.87196441 427.71061827 -199.0859375 415.13037109 C-199.9272372 414.02793142 -200.76978251 412.92644165 -201.61328125 411.82568359 C-225.46235587 380.38576258 -241.44598309 344.39197072 -249.3984375 305.75537109 C-249.61947144 304.68959839 -249.61947144 304.68959839 -249.8449707 303.60229492 C-252.83137767 287.95996058 -253.46074704 272.32361016 -253.3984375 256.44287109 C-253.39661469 255.47548004 -253.39479187 254.50808899 -253.39291382 253.51138306 C-253.34748576 239.17846132 -252.83859822 225.23263193 -250.0859375 211.13037109 C-249.84447998 209.78483154 -249.84447998 209.78483154 -249.59814453 208.41210938 C-238.74660277 148.4419655 -204.718622 91.26011524 -156.0859375 54.13037109 C-155.20421875 53.43169922 -154.3225 52.73302734 -153.4140625 52.01318359 C-121.32375889 27.10330703 -83.98539944 11.75944996 -44.4609375 3.25537109 C-43.52628662 3.05194092 -42.59163574 2.84851074 -41.62866211 2.63891602 C-27.87202089 -0.15898324 -13.97450401 -0.03060454 0 0 Z " fill="#121B28" transform="translate(253.0859375,-0.13037109375)"/>
<path d="M0 0 C9.58774132 8.72832749 15.18570228 17.94266601 17.52124023 30.72973633 C18.18124787 33.59785774 19.25346571 35.71459007 21.05249023 38.03833008 C24.82687637 39.92552315 29.47629573 39.53607571 33.42749023 38.28833008 C35.46467695 36.72126338 36.06959872 35.40807423 37.05249023 33.03833008 C37.37544882 30.77990432 37.37544882 30.77990432 37.37133789 28.36157227 C37.39120758 27.4409198 37.41107727 26.52026733 37.43154907 25.57171631 C37.44310028 24.5861676 37.45465149 23.6006189 37.46655273 22.58520508 C37.48591888 21.5698468 37.50528503 20.55448853 37.52523804 19.50836182 C37.58497122 16.26843643 37.63139451 13.0284754 37.67749023 9.78833008 C37.71567574 7.590398 37.75472781 5.39248079 37.79467773 3.19458008 C37.89066758 -2.19070448 37.97573347 -7.57607876 38.05249023 -12.96166992 C53.40305114 10.06417143 58.11325466 47.6973411 58.25561523 74.83129883 C58.26262955 75.7318399 58.26964386 76.63238098 58.27687073 77.56021118 C58.29426926 80.44880234 58.30072264 83.33718845 58.30249023 86.22583008 C58.30316498 87.2132016 58.30383972 88.20057312 58.30453491 89.21786499 C58.28880228 103.69497489 57.89183882 117.79876945 55.05249023 132.03833008 C54.76317627 133.52743896 54.76317627 133.52743896 54.46801758 135.04663086 C49.81333188 158.61211807 49.81333188 158.61211807 47.05249023 164.03833008 C46.06249023 164.36833008 45.07249023 164.69833008 44.05249023 165.03833008 C44.09374023 163.80083008 44.13499023 162.56333008 44.17749023 161.28833008 C44.16598337 158.03188806 44.1032902 155.70437003 42.05249023 153.03833008 C39.14043772 150.79828968 35.80804717 150.42058028 32.17358398 150.55395508 C27.22655724 151.68366284 24.05505982 155.96070797 20.65844727 159.48461914 C9.09017047 171.46109994 -2.306395 180.78603852 -17.94750977 187.03833008 C-19.07866211 187.51206055 -19.07866211 187.51206055 -20.23266602 187.99536133 C-40.50440902 195.68725634 -63.73136271 193.14404523 -83.26000977 184.78833008 C-108.31692347 173.48558256 -125.21579437 153.35938575 -134.94750977 128.03833008 C-135.29040039 127.16047852 -135.63329102 126.28262695 -135.98657227 125.37817383 C-138.543618 116.49088073 -139.25075028 107.59341194 -139.21313477 98.38598633 C-139.21504822 97.32399521 -139.21696167 96.26200409 -139.21893311 95.16783142 C-139.22028341 92.94017294 -139.21666854 90.71250627 -139.20825195 88.48486328 C-139.1975469 85.11252817 -139.2081817 81.74072696 -139.22094727 78.3684082 C-139.23991784 51.52926649 -134.12989657 27.28650136 -114.62329102 7.64770508 C-113.7402832 6.78661133 -112.85727539 5.92551758 -111.94750977 5.03833008 C-111.21918945 4.30098633 -110.49086914 3.56364258 -109.74047852 2.80395508 C-81.57512377 -24.15953852 -29.80545885 -25.64022652 0 0 Z " fill="#121B28" transform="translate(453.947509765625,168.961669921875)"/>
<path d="M0 0 C8.89278795 -0.09280748 17.78540839 -0.16381914 26.67857552 -0.20724869 C30.80835235 -0.22809606 34.93779709 -0.2563609 39.06738281 -0.30175781 C43.05501429 -0.34531833 47.04232696 -0.36915855 51.03017807 -0.37950897 C52.5492034 -0.38688213 54.0682119 -0.40128042 55.58710098 -0.42292023 C57.72006761 -0.45209175 59.85172827 -0.45595054 61.98486328 -0.45410156 C63.1973172 -0.46298401 64.40977112 -0.47186646 65.65896606 -0.48101807 C69.68025407 0.09793809 71.84966883 1.48288594 75 4 C76.73631636 7.47263273 76.60190402 11.21193013 76 15 C73.81840855 17.75569447 72.12822506 19.43588747 69 21 C66.30106819 21.08675538 63.62830769 21.11557897 60.9296875 21.09765625 C60.13345978 21.0962413 59.33723206 21.09482635 58.51687622 21.09336853 C55.9695462 21.08776345 53.42230353 21.07521014 50.875 21.0625 C49.14974085 21.05748565 47.42448033 21.05292263 45.69921875 21.04882812 C41.46611209 21.03779237 37.23307086 21.02052436 33 21 C33.24943359 21.60320068 33.49886719 22.20640137 33.75585938 22.82788086 C39.76296314 37.38863663 45.6016243 52.0083498 51.3125 66.6875 C51.64223816 67.53503845 51.97197632 68.3825769 52.31170654 69.25579834 C52.64889709 70.12255188 52.98608765 70.98930542 53.33349609 71.88232422 C54.03870536 73.69499928 54.74394695 75.50766177 55.44921875 77.3203125 C55.80967285 78.24677582 56.17012695 79.17323914 56.54150391 80.1277771 C61.20900424 92.11660472 65.91814297 104.0890833 70.625 116.0625 C71.55176862 118.42056867 72.47852638 120.77864161 73.40527344 123.13671875 C76.02289605 129.79670629 78.64107576 136.45647472 81.25937653 143.11619568 C84.79934694 152.12024673 88.33908187 161.12439019 91.8778038 170.128932 C93.53665704 174.3499169 95.1962356 178.57061619 96.85595703 182.79125977 C105.10128624 203.76667555 105.10128624 203.76667555 109 214 C111.94026417 211.05973583 113.04391295 207.3520352 114.5703125 203.55078125 C114.92326385 202.68361984 115.27621521 201.81645844 115.63986206 200.92301941 C116.80618953 198.05469651 117.96550312 195.18359011 119.125 192.3125 C119.94085385 190.30316104 120.75726686 188.29404903 121.57421875 186.28515625 C123.24702661 182.17085662 124.91768547 178.0556944 126.58691406 173.93994141 C129.71454171 166.23406854 132.87279763 158.54086424 136.03460693 150.84896851 C137.67044385 146.868694 139.30404136 142.887501 140.9375 138.90625 C141.26579803 138.10611984 141.59409607 137.30598969 141.93234253 136.48161316 C146.34252865 125.7305041 150.73984936 114.97412623 155.13745117 104.21786499 C159.19878243 94.28410667 163.26358539 84.35182125 167.34375 74.42578125 C174.64930731 56.65100918 181.92102887 38.86659442 189 21 C187.35801636 21.0314209 187.35801636 21.0314209 185.68286133 21.06347656 C181.6108922 21.13602709 177.53897989 21.18185409 173.46655273 21.21972656 C171.70603825 21.23980786 169.94559018 21.26707879 168.18530273 21.30175781 C165.65071198 21.35043112 163.11700505 21.37300305 160.58203125 21.390625 C159.79850784 21.41127014 159.01498444 21.43191528 158.2077179 21.45318604 C154.41932138 21.45473193 152.2509922 21.16030862 149.02612305 19.10058594 C145.46732981 15.41100201 145.66808425 12.36751886 145.7109375 7.41796875 C146 5 146 5 147.8125 2.4375 C151.87235617 -0.23040549 155.62966709 -0.15900386 160.3137207 -0.17700195 C161.05554596 -0.18357315 161.79737122 -0.19014435 162.56167603 -0.19691467 C165.01637882 -0.2166234 167.47102052 -0.2283046 169.92578125 -0.23828125 C171.18468202 -0.24439454 171.18468202 -0.24439454 172.46901512 -0.25063133 C176.91090015 -0.27148137 181.35275437 -0.28578789 185.79467773 -0.29516602 C190.37800026 -0.30623047 194.9608373 -0.34063357 199.54398823 -0.38033772 C203.07251375 -0.40650475 206.60092357 -0.41485789 210.12953758 -0.41844749 C211.81880155 -0.42331296 213.50806037 -0.43492586 215.19722939 -0.45348549 C217.56457448 -0.47788051 219.93066292 -0.47691187 222.2980957 -0.4699707 C222.99181778 -0.48278076 223.68553986 -0.49559082 224.40028381 -0.50878906 C229.69642553 -0.45236791 233.25273581 1.25273581 237 5 C237.43839055 8.38186995 237.48172213 11.62270898 237 15 C234.80977082 17.82424288 233.16982793 19.41508603 230 21 C228.6265365 21.15004973 227.2471474 21.24838006 225.8671875 21.31640625 C225.06152344 21.35830078 224.25585938 21.40019531 223.42578125 21.44335938 C222.58402344 21.48267578 221.74226562 21.52199219 220.875 21.5625 C220.02550781 21.60568359 219.17601562 21.64886719 218.30078125 21.69335938 C216.20071777 21.79954236 214.10038052 21.90028497 212 22 C211.68744514 22.7675914 211.68744514 22.7675914 211.36857605 23.5506897 C201.75445061 47.15881895 192.1211124 70.75850378 182.375 94.3125 C174.27891434 113.87989183 166.24855718 133.47356159 158.23922729 153.07659912 C153.81434715 163.90474203 149.37448678 174.7267382 144.93066406 185.54711914 C144.28317909 187.12385081 143.63571819 188.70059236 142.98828125 190.27734375 C142.50734512 191.4485955 142.50734512 191.4485955 142.01669312 192.64350891 C139.88043505 197.8484618 137.75062257 203.05601826 135.62420654 208.26499939 C134.13168454 211.92069863 132.63734856 215.57565512 131.1428833 219.2305603 C130.42660269 220.98379073 129.71121964 222.73738815 128.99676514 224.49136353 C128.0118105 226.90923042 127.02382455 229.32583725 126.03515625 231.7421875 C125.59419868 232.82814964 125.59419868 232.82814964 125.14433289 233.93605042 C123.11386804 238.88613196 123.11386804 238.88613196 122 240 C120.00035018 240.08758003 117.9976389 240.10696576 115.99609375 240.09765625 C114.78115234 240.09443359 113.56621094 240.09121094 112.31445312 240.08789062 C111.03505859 240.07951172 109.75566406 240.07113281 108.4375 240.0625 C107.15423828 240.05798828 105.87097656 240.05347656 104.54882812 240.04882812 C101.36583978 240.03699545 98.18294238 240.02051068 95 240 C91.13126986 231.56693062 87.76474951 222.9453107 84.375 214.3125 C83.7168276 212.64033673 83.05854015 210.96821874 82.40014648 209.29614258 C71.21873556 180.88332784 60.11933756 152.43826083 49.02178955 123.99261475 C35.74763539 89.96876168 22.43387187 55.96114512 9 22 C3.06 21.67 -2.88 21.34 -9 21 C-7.37957248 15.59857495 -5.44072664 10.70451907 -2.8828125 5.671875 C-2.34285645 4.60549805 -1.80290039 3.53912109 -1.24658203 2.44042969 C-0.83520996 1.63508789 -0.42383789 0.82974609 0 0 Z " fill="#FCFCFD" transform="translate(29,135)"/>
<path d="M0 0 C0.7425 0.680625 1.485 1.36125 2.25 2.0625 C2.27578125 1.33804688 2.3015625 0.61359375 2.328125 -0.1328125 C2.68944049 -6.29159924 3.15270157 -10.23765769 7.25 -14.9375 C10.6852048 -17.22763653 12.235331 -17.11592973 16.25 -16.9375 C24.2868516 -3.33441822 26.58331673 7.94367212 26.14868164 23.67407227 C26.06135388 26.91756885 26.04612673 30.15581428 26.04101562 33.40039062 C26.01713983 35.48182216 25.98929469 37.56321283 25.95703125 39.64453125 C25.9494429 40.60390091 25.94185455 41.56327057 25.93403625 42.55171204 C25.75069989 48.28652109 25.11181998 51.71767758 21.25 56.0625 C17.53248383 57.30167206 14.1126817 57.60568961 10.25 57.0625 C6.14384934 54.65236809 4.75755265 52.47563489 3.25 48.0625 C2.96358033 46.35989419 2.71477895 44.65061785 2.5 42.9375 C0.36106413 30.7896505 -6.94029699 22.00444982 -16.7265625 14.90234375 C-36.31570548 2.15271906 -61.85638294 -3.08022991 -84.859375 1.37890625 C-99.24352301 4.78056287 -111.70944078 11.22401172 -122.75 21.0625 C-123.50925781 21.72765625 -124.26851563 22.3928125 -125.05078125 23.078125 C-140.45787174 37.44743219 -150.05272741 58.7539063 -150.85099792 79.71444702 C-150.89758769 82.62902962 -150.91475574 85.54207744 -150.91796875 88.45703125 C-150.92129715 89.52563889 -150.92462555 90.59424652 -150.92805481 91.69523621 C-150.93309264 93.94501315 -150.93546411 96.1947975 -150.93530273 98.44458008 C-150.93748684 101.85445688 -150.95567003 105.26400849 -150.97460938 108.67382812 C-150.97754458 110.87239474 -150.97952852 113.07096288 -150.98046875 115.26953125 C-150.98765427 116.2730513 -150.99483978 117.27657135 -151.00224304 118.3105011 C-150.97076813 128.24498331 -149.68384483 137.86179816 -146 147.125 C-145.73614502 147.80272461 -145.47229004 148.48044922 -145.20043945 149.17871094 C-135.82790154 172.67551029 -118.89932591 190.59883129 -95.875 200.9375 C-74.54945786 209.97374667 -51.21793218 211.09087454 -29.45581055 202.50610352 C-13.25412669 195.81285117 -1.69904116 185.31976785 10.40136719 172.92602539 C11.0049707 172.30848389 11.60857422 171.69094238 12.23046875 171.0546875 C12.76567139 170.50151855 13.30087402 169.94834961 13.85229492 169.37841797 C16.69974224 166.69758983 19.40062212 166.7883711 23.21484375 166.84375 C26.18774757 167.16329436 27.95998159 168.17660248 30.25 170.0625 C32.60263207 173.31137286 32.8425029 176.13716827 32.25 180.0625 C28.71260678 186.55626153 23.92529516 191.90622695 18.6875 197.0625 C17.98496094 197.75601563 17.28242188 198.44953125 16.55859375 199.1640625 C-6.91671092 221.8738681 -36.10863999 230.58814498 -68.0859375 230.2734375 C-85.46337856 229.88102804 -101.97141445 224.09629413 -116.75 215.0625 C-117.70132813 214.49015625 -118.65265625 213.9178125 -119.6328125 213.328125 C-127.34658659 208.45414764 -133.86272656 202.69831705 -140.38427734 196.37255859 C-141.4783373 195.32309028 -142.60358784 194.30617758 -143.73828125 193.30078125 C-161.45923824 177.18697549 -172.52296989 150.51532037 -173.93843079 126.92163086 C-174.01147594 123.64535551 -174.02744721 120.37471617 -174.015625 117.09765625 C-174.01753845 115.90248886 -174.0194519 114.70732147 -174.02142334 113.47593689 C-174.0227753 110.96580798 -174.01914858 108.45567184 -174.01074219 105.94555664 C-174.00003844 102.13867218 -174.01066689 98.33226056 -174.0234375 94.52539062 C-174.02211555 92.07031147 -174.01955241 89.61523261 -174.015625 87.16015625 C-174.02169769 85.47987083 -174.02169769 85.47987083 -174.02789307 83.76564026 C-173.8595405 54.88631811 -161.57416416 28.77686842 -141.75 8.0625 C-141.07582031 7.31355469 -140.40164063 6.56460938 -139.70703125 5.79296875 C-128.50120502 -6.21177192 -114.13022348 -13.65069076 -98.6875 -18.6875 C-98.05078369 -18.89866455 -97.41406738 -19.1098291 -96.75805664 -19.32739258 C-65.39377522 -29.04764525 -25.30786113 -20.85555223 0 0 Z " fill="#FCFCFD" transform="translate(466.75,151.9375)"/>
</svg>
